<?xml version="1.0" encoding="utf-8"?>
<!-- Generator: Adobe Illustrator 12.0.1, SVG Export Plug-In . SVG Version: 6.00 Build 51448)  -->
<!DOCTYPE svg PUBLIC ",//W3C//DTD SVG 1.1//EN" "http://www.w3.org/Graphics/SVG/1.1/DTD/svg11.dtd" [<!ENTITY ns_svg "http://www.w3.org/2000/svg"> <!ENTITY ns_xlink "http://www.w3.org/1999/xlink"> ]>
<svg  version="1.1" id="Bundesrepublik_Deutschland" xmlns="&ns_svg;" xmlns:xlink="&ns_xlink;"  xmlns:sodipodi="http://sodipodi.sourceforge.net/DTD/sodipodi-0.dtd" width="591.504" height="800.504"

viewBox="0 0 591.504 800.504" overflow="visible" enable-background="new 0 0 591.504 800.504" xml:space="preserve">
<g>
<path id="Niedersachsen" fill="#B1D1A3" stroke="#284566" stroke-width="0.5" d="
M176.903,149.425
l-0.914,-2.178
l-1.179,-3.024
l-0.012,-2.02
l0.000,-1.269
l0.063,-0.656
l3.771,-11.354
l0.522,-1.386
l1.031,-2.622
l2.194,-2.864
l0.84,-0.794
l1.809,-0.539
l1.284,-0.327
l1.105,-0.063
l-0.031,0.54
l0.063,0.307
l0.146,0.307
l1.465,1.776
l2.823,2.071
l0.968,0.677
l0.641,0.296
l0.738,0.202
l1.557,0.2
l5.073,0.412
l1.635,-0.327
l0.291,-0.105
l0.063,-0.075
l0.011,-0.147
l0.285,-0.104
l2.083,-0.443
l0.528,0.031
l2.146,0.518
l-0.484,-0.634
l-0.767,-1.968
l-0.413,-1.227
l0.813,-0.369
l0.894,-0.308
l0.842,-0.147
l1.009,-0.032
l3.195,0.213
l3.631,0.053
l2.071,-0.032
l1.894,0.255
l3.548,1.532
l1.803,1.301
l2.357,3.405
l0.523,0.962
l1.823,3.922
l0.768,1.851
l0.74,1.28
l0.586,0.824
l0.86,0.792
l2.338,1.734
l0.983,1.099
l0.344,0.593
l0.783,1.882
l0.416,1.025
l0.105,0.465
l0.085,1.597
l0.35,1.26
l0.407,0.878
l0.434,0.612
l2.263,1.818
l5.36,3.499
l1.649,0.551
l1.677,0.181
l2.694,0.369
l0.000,2.822
l-0.306,2.22
l0.83,0.857
l0.956,2.23
l0.074,0.592
l3.411,3.511
l0.253,-0.116
l0.83,-0.625
l1.284,-1.427
l0.253,-0.158
l0.328,0.223
l0.745,0.92
l2.114,2.009
l1.582,1.321
l0.423,-0.031
l2.817,-2.072
l0.18,-0.908
l0.604,-1.302
l0.556,-0.739
l1.761,1.046
l0.513,0.581
l0.37,0.51
l1.76,2.008
l2.543,2.399
l0.443,0.296
l0.382,0.085
l3.21,0.139
l0.37,-0.054
l0.185,-0.127
l0.242,-0.254
l0.604,-1.49
l0.189,-0.274
l0.248,-0.255
l0.371,-0.199
l2.221,-1.217
l0.189,-0.095
l0.147,-0.012
l1.603,0.878
l5.896,2.694
l2.42,1.248
l0.819,0.581
l0.916,0.54
l0.581,0.233
l4.136,1.216
l0.484,0.041
l0.322,-0.147
l0.435,-0.254
l0.083,-0.053
l-0.052,-0.042
l0.661,-0.412
l0.677,-0.243
l1.051,-0.104
l3.96,-0.021
l0.201,0.084
l0.229,0.148
l1.021,0.803
l0.623,0.592
l1.224,1.471
l0.502,0.655
l0.349,0.55
l1.095,0.993
l0.665,0.402
l2.659,1.015
l0.857,-0.485
l1.104,-0.729
l1.127,-0.74
l0.042,-0.274
l-0.042,-0.096
l0.393,-0.752
l1.384,-1.077
l2.581,0.665
l1.792,0.477
l2.441,5.562
l2.285,4.432
l1.146,1.554
l0.673,0.678
l2.865,2.125
l1.169,0.285
l0.894,0.211
l0.564,0.054
l0.782,0.434
l0.147,0.231
l0.043,0.36
l-0.296,0.931
l-0.064,0.2
l-0.549,0.55
l-0.545,0.2
l3.559,1.428
l0.617,0.308
l0.571,0.4
l0.936,1.017
l0.213,0.285
l0.18,0.35
l0.032,1.448
l0.029,0.338
l0.074,0.201
l1.147,1.386
l2.986,3.065
l0.286,0.157
l0.233,0.042
l0.459,-0.01
l1.697,-0.909
l1.029,-0.794
l0.275,-0.158
l0.386,-0.104
l2.035,-0.571
l0.407,-0.043
l0.519,0.043
l0.412,0.2
l0.364,0.285
l0.708,0.794
l1.159,1.226
l0.564,0.401
l0.637,0.191
l4.386,1.057
l0.604,0.021
l0.091,0.139
l-0.012,0.085
l-2.479,3.637
l-0.033,0.053
l-0.739,-0.073
l-0.649,-0.359
l-0.381,-0.528
l-0.085,-0.042
l-0.83,0.158
l-0.339,0.708
l-0.222,1.016
l-0.578,3.203
l0.8,1.871
l-0.861,-0.011
l-1.231,0.286
l-1.114,0.635
l-1.762,1.701
l-0.894,1.163
l-0.147,0.159
l-5.693,2.78
l-1.128,0.308
l-3.153,-0.318
l-0.318,-0.063
l-0.104,-0.074
l-0.042,-0.126
l0.000,-0.275
l-0.126,-0.315
l-0.319,-0.328
l-0.743,-0.772
l-3.896,-0.761
l-9.264,-0.401
l-0.339,0.031
l-0.259,0.105
l-0.328,0.381
l-0.17,0.654
l-0.04,0.751
l0.094,0.455
l-0.021,0.158
l-0.202,0.423
l-2.85,3.099
l-6.063,0.159
l-2.675,0.549
l-2.063,0.582
l-0.507,2.188
l-0.021,0.2
l0.222,2.274
l-0.148,0.603
l-0.084,0.57
l2.632,7.189
l2.612,1.924
l3.728,5.317
l2.798,5.425
l-0.011,0.042
l-0.181,2.188
l0.339,1.343
l0.338,0.761
l0.757,1.29
l1.316,1.683
l1.823,2.112
l-1.74,-0.072
l-2.241,1.204
l-0.623,1.556
l0.855,1.84
l4.525,5.771
l1.296,0.806
l0.316,0.053
l0.228,0.105
l0.771,0.666
l0.617,0.603
l0.053,0.392
l-0.042,1.406
l-0.052,0.179
l-0.809,0.646
l-1.126,0.519
l-0.181,0.054
l-0.563,-0.139
l-1.226,1.714
l0.417,4.103
l0.055,0.095
l1.432,1.575
l1.359,1.364
l1.433,1.998
l0.438,0.963
l0.021,0.084
l-0.032,0.063
l-0.586,0.782
l-1.083,0.223
l-0.698,0.18
l-0.999,0.465
l-0.327,0.213
l-0.29,0.539
l-0.413,1.047
l-0.116,0.75
l0.064,0.423
l0.137,0.308
l0.179,0.189
l0.377,0.296
l0.665,0.402
l0.48,0.011
l0.878,-0.117
l0.169,0.021
l0.06,0.074
l0.105,0.358
l-0.054,1.458
l-0.163,0.276
l-1.189,1.774
l-1.877,1.533
l-2.03,1.448
l-0.381,1.925
l-0.307,3.088
l-0.111,-0.096
l-1.706,-0.17
l-3.433,0.104
l-0.52,0.097
l-0.935,0.666
l-0.359,0.147
l-1.387,0.285
l-1.823,0.063
l-0.944,-0.223
l-0.256,0.000
l-5.032,0.063
l-1.021,0.2
l-1.924,0.581
l-0.105,0.952
l0.158,0.443
l-0.042,0.274
l-0.053,0.147
l-1.771,1.744
l-4.207,0.444
l1.686,2.379
l3.732,2.802
l-1.273,0.423
l-0.756,1.102
l-0.021,0.18
l0.021,1.627
l0.893,0.327
l0.807,0.329
l0.521,0.645
l0.105,0.285
l0.074,0.655
l0.000,0.74
l-0.106,0.35
l-1.021,1.597
l-0.18,0.127
l-0.381,0.021
l-0.386,0.159
l-2.146,1.775
l-0.359,0.465
l-0.147,0.507
l0.012,3.458
l0.265,2.822
l0.702,1.47
l1.031,0.571
l3.014,4.452
l0.936,2.23
l-0.211,0.527
l0.084,0.855
l0.224,1.279
l0.137,0.392
l1.264,2.03
l0.302,0.411
l0.053,0.054
l0.37,0.116
l-0.105,0.18
l-1.157,0.159
l-0.274,-0.043
l-2.083,5.529
l-0.926,1.767
l-4.565,1.163
l-2.435,0.307
l-0.581,-0.307
l-1.211,-1.8
l-0.386,-0.252
l-0.74,-0.465
l-0.417,-0.19
l-1.538,-0.655
l-0.843,-0.274
l-0.189,0.021
l-2.368,0.624
l-0.697,1.163
l-0.904,1.934
l0.436,0.202
l0.04,0.095
l-0.231,0.814
l-0.146,0.315
l-1.507,2.264
l-0.144,0.105
l-2.591,2.082
l-8.025,5.436
l-5.313,1.077
l-6.663,3.871
l-3.077,2.072
l-0.49,0.188
l-0.212,0.063
l-0.201,-0.136
l0.359,-0.233
l0.043,-0.138
l-0.043,-1.173
l-0.339,-0.593
l-1.253,-2.029
l-0.285,-0.169
l-3.093,0.411
l-3.198,0.455
l-0.181,0.042
l-0.434,0.274
l-4.398,3.7
l-1.083,1.501
l1.774,2.781
l1.721,-0.824
l0.513,-0.021
l0.073,0.147
l0.073,1.363
l-0.094,0.477
l-0.271,1.185
l-2.321,1.194
l-0.132,-0.231
l-3.362,-1.66
l-5.293,-2.21
l-1.729,-0.551
l-0.661,-1.151
l-0.507,-0.783
l0.073,-0.316
l0.508,-1.998
l0.2,-0.435
l1.073,-1.69
l0.514,-0.096
l1.612,-0.265
l1.283,0.053
l0.745,-1.142
l0.097,-0.211
l-0.756,-4.304
l-0.349,-1.586
l-0.545,-0.603
l-2.066,-3.521
l-0.054,-0.158
l0.011,-0.097
l0.147,-0.316
l2.432,-2.717
l1.526,-0.266
l0.182,-0.358
l0.587,-0.794
l0.729,-0.603
l0.66,0.19
l0.106,0.000
l0.116,-0.17
l0.326,-0.835
l-0.18,-0.402
l-0.181,-0.19
l-0.818,-0.527
l-0.698,-0.581
l-1.423,-1.554
l-0.072,-0.106
l-3.409,-1.744
l-0.97,0.021
l-3.197,-0.054
l-0.697,-0.095
l-0.725,-0.444
l-0.308,-0.411
l-0.042,-0.327
l0.212,-0.825
l0.242,-0.539
l-0.032,-0.381
l-0.147,-0.223
l-0.273,-0.054
l-3.273,0.72
l-0.138,-0.085
l-0.23,0.012
l-0.587,0.189
l-0.064,0.021
l-0.455,0.243
l-0.137,0.021
l-1.606,0.042
l-0.213,0.000
l-0.273,-0.073
l-0.46,-0.339
l0.86,-7.231
l1.81,-5.57
l1.243,-3.046
l0.021,-3.404
l-1.776,-1.774
l-0.56,-0.328
l-1.479,-0.551
l-0.445,-0.128
l-0.211,-0.01
l-0.619,0.223
l-0.338,0.2
l-1.01,0.636
l0.232,-0.148
l0.512,-2.422
l0.148,-1.015
l0.042,-0.603
l-0.338,-1.301
l-0.471,-0.824
l-0.063,-0.085
l-1.063,-0.571
l-0.339,-0.053
l-0.063,0.031
l-1.01,0.158
l-0.872,-0.486
l-5.658,-4.091
l-0.629,-1.533
l-0.275,-6.207
l0.032,-1.797
l0.032,-0.243
l0.465,-0.666
l0.502,-0.265
l0.138,-0.116
l-0.915,-1.586
l-1.348,-1.227
l0.286,-2.22
l-0.339,-0.974
l-0.528,-0.581
l-0.228,-0.105
l-0.932,-0.328
l-3.462,-0.667
l-3.453,-2.652
l-1.915,-2.538
l2.297,1.206
l1.453,0.021
l1.987,-4.916
l0.063,-0.231
l-2.548,-1.691
l-2.01,-0.805
l-1.559,-0.433
l-0.286,-0.116
l-0.164,-0.127
l-0.507,-1.556
l2.263,-4.777
l0.665,-0.455
l1.021,-0.676
l0.969,-0.478
l1.2,-0.169
l0.785,-0.465
l0.752,-0.678
l0.11,-0.139
l0.804,-1.542
l1.491,-3.046
l0.19,-0.485
l0.084,-0.697
l-0.914,-2.337
l1.803,-4.091
l-0.054,-0.213
l-0.21,-0.677
l-2.708,-1.228
l-2.336,-0.548
l-1.581,2.062
l-0.757,1.405
l-2.126,2.781
l-2.896,3.763
l-0.189,0.074
l-5.112,1.143
l-6.73,0.063
l-1.839,-0.794
l-0.54,-0.392
l-0.174,-1.469
l-0.244,-7.625
l0.271,-1.342
l-0.047,-0.308
l-0.224,-0.569
l-0.729,-0.698
l-2.125,-1.66
l-5.905,3.066
l-3.082,-1.512
l-3.109,2.39
l-0.137,1.405
l-0.196,1.312
l-0.104,0.339
l-1.54,1.312
l-0.978,0.138
l-3.357,0.254
l-0.497,-0.508
l0.032,-0.189
l-0.308,-0.308
l-2.367,-0.624
l-0.438,-0.095
l-0.413,0.265
l0.496,1.077
l0.651,3.204
l5.213,3.923
l2.178,1.681
l1.561,4.62
l-0.148,1.756
l0.238,3.329
l-0.481,0.975
l-1.116,4.45
l0.086,0.232
l0.546,1.016
l0.782,0.688
l0.279,0.116
l0.359,0.021
l1.21,0.393
l1.242,0.645
l-0.641,0.846
l-0.476,0.594
l-1.011,1.057
l-0.231,0.189
l-0.528,0.255
l-0.364,0.063
l-0.646,-0.043
l-0.17,0.063
l-2.21,1.47
l-0.428,0.401
l-0.34,0.486
l-0.053,0.339
l0.116,0.57
l0.244,0.719
l-3.016,-0.317
l-2.441,-0.888
l-2.923,-0.635
l-0.604,-0.074
l-1.38,1.026
l-1.702,1.627
l-4.022,2.907
l-1.598,0.37
l-2.263,1.406
l-0.308,-0.623
l-1.095,-0.285
l-1.042,-0.148
l-1.526,-0.116
l-0.17,0.011
l-2.272,1.734
l-0.393,0.528
l-0.628,0.931
l-1.147,-0.435
l-1.803,-0.762
l-1.03,-0.539
l-0.244,-1.005
l-1.405,-2.294
l-0.275,0.000
l0.043,-0.138
l0.937,-0.708
l3.694,-1.228
l3.188,-0.973
l-0.189,-4.145
l-1.967,-1.839
l-2.326,-0.444
l-0.063,-0.031
l-1.231,-0.879
l-0.286,-0.485
l-0.301,-0.994
l-0.169,-0.771
l0.011,-0.116
l2.733,-5.813
l1.052,-0.708
l-1.363,-1.396
l-0.161,-0.2
l-0.071,-0.592
l0.042,-0.465
l0.095,-0.381
l2.104,-2.242
l-0.697,-2.537
l-0.956,-1.682
l-2.786,-1.701
l-1.571,0.38
l-0.264,0.169
l-1.327,0.592
l-2.209,-0.338
l-5.076,-3.087
l-1.554,-4.451
l-0.529,-1.12
l-0.2,-0.265
l-0.152,-0.159
l-4.606,-1.808
l-0.237,-0.106
l-0.781,0.975
l-0.599,1.036
l-0.38,0.803
l-0.465,1.513
l0.675,0.465
l1.381,0.74
l-0.127,0.677
l-1.802,3.183
l-2.315,1.153
l-0.322,0.021
l-0.266,0.031
l-1.696,0.973
l-4.207,2.591
l-3.718,2.748
l-0.613,0.52
l-0.343,0.687
l-0.267,0.498
l-1.041,0.549
l-1.021,0.105
l-0.805,0.085
l-0.406,0.581
l-0.884,1.037
l-5.012,-0.37
l-1.295,-0.084
l-2.59,-0.287
l-2.137,0.476
l-0.604,0.563
l-0.222,0.264
l-0.693,0.995
l-2.104,0.073
l-1.393,-1.575
l-0.606,-1.639
l-0.148,-0.771
l-0.146,-0.846
l0.053,-0.487
l1.38,-3.13
l0.66,-1.469
l1.063,-1.428
l0.105,-2.137
l-0.496,-1.871
l-4.071,-7.822
l-0.085,-0.149
l-0.254,-0.222
l-0.628,0.392
l-0.551,1.047
l-0.513,1.1
l-1.005,0.678
l-0.323,0.116
l-10.371,-2.931
l-1.333,-0.496
l-3.362,-2.452
l0.043,-0.296
l0.358,-1.956
l0.244,-1.217
l0.786,-2.887
l0.413,-4.091
l-0.434,-4.028
l2.113,-1.733
l1.058,-0.338
l1.597,-0.266
l0.435,0.011
l6.535,0.392
l5.297,0.888
l1.273,0.435
l0.181,0.243
l0.021,0.063
l0.365,0.211
l1.751,0.465
l0.073,-0.021
l0.243,-0.243
l0.598,-0.824
l0.83,-7.201
l0.4,-4.111
l0.551,-5.764
l1.095,-4.018
l2.104,-2.854
l4.123,-6.248
l1.381,-4.208
l0.562,-1.775
l0.221,-1.144
l-0.526,-6.944
l0.315,-3.447
l-1.158,-0.94
l-0.138,-0.836
l-0.042,-0.846
l0.862,-2.368
l0.798,-1.417
l0.878,-2.062
l0.387,-5.468
l1.114,-4.746
l0.677,-2.114
l0.084,-0.253
l0.097,-0.097
l0.533,-0.189
l2.876,0.000
l-0.357,-0.137
l-2.265,-0.646
l-1.241,-0.287
l-0.861,-0.137
l-3.099,-0.275
l-6.989,-0.222
l-2.03,-0.285
l-0.4,-0.243
l-0.28,-0.359
l-0.741,-1.374
l-0.188,-0.508
l0.085,-0.284
l0.981,-1.692
l0.133,-2.611
l1.57,-12.751
l3.357,1.522
l0.977,1.386
l1.92,-1.925
l1.063,-1.142
l-0.999,-1.787
l-0.678,-0.402
l-1.648,-1.099
l-0.508,-0.656
l0.285,-0.898
l4.589,-4.758
l1.212,-1.205
l2.717,-1.978
l1.104,-0.771
l2.819,-0.994
l1.348,-0.307
l1.23,-0.147
l1.655,-0.147
l7.465,0.613
l0.354,0.127
l0.604,0.35
l0.138,0.189
l0.512,0.35
l0.721,0.359
l0.459,0.011
l1.761,-0.328
l3.944,-1.279
l4.214,-1.194
l0.396,-0.074
l0.604,-0.084
l0.442,0.043
l0.012,0.158
l0.565,0.147
l1.147,0.03
l1.23,-0.116
l3.156,-0.951
l6.19,-0.55
l3.188,0.351
l2.854,0.453
l0.979,0.498
l0.244,0.296
l-0.043,0.477
l-0.085,0.231
l-0.449,0.635
l-0.096,0.729
l0.345,2.272
l0.221,0.867
l0.53,1.385
l2.88,0.4
l0.285,0.35
l0.52,0.782
l0.576,1.12
l3.356,7.878
l0.000,0.104
l-0.053,0.328
l-0.105,0.359
l-0.259,0.889
l-0.285,0.581
l-0.904,0.465
l-0.898,0.338
l-2.146,0.782
l-0.406,0.105
l-0.919,-0.03
l-0.989,-0.772
l0.074,2.063
l0.104,0.931
l0.127,0.529
l0.244,0.666
l0.312,0.677
l0.614,0.813
l0.798,0.867
l0.393,-0.158
l0.83,-0.551
l0.188,-0.042
l0.895,-0.031
l0.697,0.2
l1,1.28
l1.21,1.755
l0.64,1.015
l0.054,0.105
l-0.021,0.244
l0.211,0.422
l0.138,0.147
l0.649,0.275
l1.079,0.253
l0.786,0.096
l0.37,-0.043
l0.62,-0.315
l0.506,-0.381
l0.175,-0.189
l0.679,-0.763
l0.574,-0.813
l0.467,-0.823
l0.733,-1.735
l0.328,-0.771
l0.127,-0.792
l0.233,-3.722
l-0.075,-1.555
l-0.072,-0.223
l-0.244,-0.497
l-0.148,-0.169
l-0.438,-0.254
l-1.57,0.613
l-0.55,0.158
l-2.136,-0.401
l0.485,-4.166
l0.254,-1.66
l0.075,-0.306
l0.417,-0.89
l0.328,-0.465
l0.935,-0.931
l0.938,-0.739
l1.314,-0.486
l1.201,0.116
l1.399,0.92
l0.436,0.624
l0.744,1.395
l0.915,1.364
l1.116,0.614
l3.727,1.68
l0.212,0.044
l0.401,-0.053
l0.46,-0.012
l1.412,0.243
l0.756,0.127
l1.919,1.185
l0.127,0.137
l0.096,0.265
l0.164,0.962
l-0.021,0.074
l-0.186,0.169
l-0.349,0.254
l0.338,0.477
l1.363,1.817
l0.000,0.181
l-0.059,0.201
l-0.369,0.528
l0.169,0.232
l0.322,0.201
l1.823,0.199
l0.18,-0.011
l2.561,-2.707
l0.095,-0.518
l-0.898,-3.88
l1.073,-4.971
l-0.063,-0.095
l-1.683,-0.264
l-5.393,-0.275
L176.903,149.425
z
M204.517,199.233
l-0.266,-0.569
l-1.38,-1.671
l-0.683,-0.486
l-0.316,-0.011
l-1.146,0.729
l-4.706,-0.138
l-3.769,-1.914
l-4.229,-2.071
l-6.477,-0.771
l-7.514,-4.052
l-0.274,-0.865
l-0.011,-0.678
l-0.021,0.729
l0.223,1.312
l0.396,0.855
l0.318,0.561
l0.733,1.078
l1.549,1.248
l2.379,1.143
l0.8,0.338
l0.908,0.128
l0.768,0.201
l0.357,0.307
l0.256,0.507
l1.574,4.197
l0.148,1.321
l0.915,0.624
l1.96,2.114
l0.493,0.677
l0.063,0.634
l0.063,2.611
l0.486,0.509
l0.545,0.465
l0.307,0.074
l1.053,-0.359
l0.369,-0.148
l1.349,0.012
l5.346,1.851
l3.108,1.216
l3.251,-2.78
l0.054,-1.968
l-0.382,-4.768
l-0.787,-1.228
l0.085,-0.127
l0.138,-0.073
l0.967,-0.359
L204.517,199.233
z
M137.575,131.304
l-1.031,-1.259
l-0.106,-0.115
l0.000,-0.181
l0.435,-0.381
l0.381,-0.158
l1.337,-0.054
l0.746,0.031
l0.681,0.097
l1.762,0.391
l0.619,0.18
l0.222,0.116
l1.23,0.857
l0.055,0.476
l-0.17,0.042
l-1.628,-0.603
l-3.844,-0.983
l-0.148,0.01
l-0.095,0.074
l-0.254,0.434
L137.575,131.304
z
M146.854,134.475
l-0.104,-0.011
l-0.328,-0.147
l-0.255,-0.168
l-0.211,-0.243
l-0.096,-0.232
l-0.429,-1.681
l0.011,-0.383
l0.725,-0.865
l0.359,0.443
l0.411,2.114
l-0.021,1.068
L146.854,134.475
z
M126.208,133.153
l-0.529,-0.095
l-0.175,-0.104
l-0.21,-0.403
l0.011,-0.391
l0.273,-0.562
l0.608,-0.761
l0.285,-0.274
l0.264,-0.169
l0.607,-0.19
l1.054,-0.041
l1.506,0.041
l2.379,0.211
l0.435,0.064
l1.354,0.369
l0.392,0.412
l0.053,0.147
l-0.053,0.043
l-3.674,0.688
l-3.695,-0.233
L126.208,133.153
z
M113.525,135.986
l-0.223,-0.042
l-0.359,-0.296
l-0.147,-0.897
l0.021,-0.729
l0.074,-0.286
l0.718,-0.981
l0.197,-0.169
l0.624,-0.318
l0.433,-0.074
l3.391,-0.021
l2.68,0.137
l0.973,0.117
l0.248,0.073
l0.401,0.147
l0.359,0.212
l0.128,0.19
l0.031,0.486
l-0.021,0.104
l-0.042,0.011
l-0.793,0.054
l-0.011,-0.054
l0.126,-0.127
l-0.012,-0.053
l-0.063,-0.021
l-2.124,-0.137
l-1.586,0.137
l-2.327,0.224
l-0.284,0.095
L113.525,135.986
z
M111.209,136.114
l-1.38,-0.054
l-1.612,-0.189
l-1.391,-0.316
l-0.323,-0.486
l0.011,-0.104
l0.086,-0.097
l1.47,-0.603
l0.253,-0.053
l0.328,0.000
l2.083,0.455
l0.139,0.073
l0.315,1.119
l0.043,0.159
L111.209,136.114
z
M93.805,137.721
l-0.639,-0.539
l-0.267,-0.38
l-0.054,-0.191
l0.128,-0.231
l0.307,-0.223
l0.375,-0.188
l1.412,-0.635
l0.927,-0.243
l0.549,-0.074
l7.147,0.031
l1.072,0.032
l0.529,0.138
l0.25,0.126
l0.179,0.508
l-0.043,0.147
l-0.884,0.316
l-0.599,0.191
l-7.665,0.951
l-1.986,0.169
L93.805,137.721
z
M78.277,140.406
l-0.587,-0.044
l-0.115,-0.01
l-0.34,-0.115
l-0.502,-0.328
l-0.063,-0.17
l0.063,-0.138
l0.344,-0.095
l2.101,-0.201
l6.925,-0.687
l3.125,0.000
l0.873,0.189
l0.126,0.158
l0.053,0.147
l-0.01,0.254
L90.1,139.6
l-0.059,-0.158
l-0.085,-0.042
l-1.496,-0.096
l-0.624,-0.021
l-0.746,0.021
l-3.537,0.127
l-4.673,0.719
l-0.562,0.17
L78.277,140.406
z
M68.587,150.948
l-0.52,-1.078
l-0.307,-0.201
l-0.522,0.032
l-0.434,0.157
l-0.063,0.139
l0.000,0.296
l0.104,0.307
l0.127,0.095
l-0.011,0.042
l-0.116,0.032
l-0.649,-0.105
l-2.602,-2.07
l-0.443,-0.678
l-0.169,-0.856
l0.083,-0.413
l0.158,-0.253
l0.096,-0.096
l0.286,-0.105
l5.24,-1.585
l0.273,-0.012
l0.55,0.075
l0.661,0.284
l1.762,1.321
l0.521,0.551
l0.054,0.158
l-5.281,1.49
l1.263,1.131
l0.672,0.815
l-0.054,0.094
l-0.554,0.424
L68.587,150.948
z
"/>
<path id="Thüringen" fill="#B1D1A3" stroke="#284566" stroke-width="0.5" d="
M312.004,351.725
l1.845,-0.401
l3.39,0.274
l1.912,0.169
l2.919,0.688
l0.43,0.308
l1.961,1.818
l1.265,-0.54
l-1.666,2.241
l-0.478,1.607
l1.212,2.886
l2.09,3.257
l1.68,2.591
l0.958,1.227
l-0.146,2.39
l-0.133,2.706
l0.776,0.467
l0.86,0.961
l0.842,0.105
l0.75,-0.073
l1.158,-0.412
l0.629,-0.316
l6.445,2.04
l0.459,0.054
l6.442,0.137
l1.402,-0.03
l0.703,-0.148
l2.77,0.116
l4.188,1.606
l0.232,0.296
l0.042,0.339
l-0.274,1.871
l0.55,1.016
l0.021,0.401
l1.798,0.604
l-0.523,0.507
l-0.064,0.148
l-0.019,0.146
l0.49,0.634
l0.677,0.646
l0.309,0.104
l0.396,0.212
l1.306,1.173
l0.466,0.509
l0.041,0.273
l-0.063,0.148
l-0.4,0.688
l-0.703,1.109
l-1.466,2.146
l-0.818,1.151
l-0.52,0.594
l-0.273,0.199
l-0.473,0.181
l-0.052,-0.012
l-0.75,-0.854
l-0.186,0.011
l-0.223,0.158
l-0.339,0.528
l-0.576,1.005
l-0.104,0.803
l1.554,1.237
l1.591,0.042
l0.937,-0.444
l0.243,0.021
l0.861,0.358
l1.571,1.607
l1.082,2.452
l0.000,0.275
l-0.533,1.247
l-0.274,0.508
l-1.316,0.242
l0.83,3.426
l0.486,0.371
l0.903,0.423
l0.054,0.264
l3.874,-0.083
l0.842,-0.709
l0.255,-0.231
l0.342,-0.753
l0.202,-0.179
l6.296,0.994
l1.561,0.961
l0.313,1.218
l0.188,1.331
l0.14,0.562
l4.776,1.521
l1.806,0.486
l2.808,-0.581
l2.029,-0.539
l0.835,0.272
l3.452,2.199
l2.168,1.556
l0.254,0.231
l2.348,3.013
l0.18,0.53
l0.021,0.242
l0.043,0.89
l0.956,-0.425
l0.343,-0.083
l3.227,-0.521
l0.243,-0.021
l3.615,1.195
l1.09,0.498
l-0.074,-0.721
l0.248,-0.272
l0.275,-0.309
l0.676,-0.55
l0.106,0.104
l1.406,1.799
l0.443,0.836
l0.265,1.076
l0.042,0.031
l0.576,-0.401
l0.242,-0.124
l0.714,-0.933
l3.183,-6.871
l0.063,-0.308
l0.042,-1.025
l-0.475,-0.624
l-0.382,-0.232
l-1.307,-0.963
l-0.248,-1.681
l1.607,-2.506
l2.991,-1.459
l0.096,-0.021
l7.692,2.41
l2.896,1.057
l0.376,0.244
l0.19,0.274
l0.241,0.89
l-0.127,0.653
l-0.071,1.248
l0.307,1.767
l2.475,1.86
l2.38,0.898
l2.421,0.612
l0.339,1.648
l0.586,2.272
l0.146,0.255
l0.661,1.098
l0.265,0.254
l0.541,0.371
l-0.815,1.237
l-2.796,0.911
l-1.422,0.252
l-0.562,-0.136
l-1.894,0.295
l-3.209,0.813
l-0.265,0.148
l-1.454,1.235
l-0.031,1.247
l-0.924,2.623
l-0.201,0.084
l-1.267,0.37
l-0.04,-0.063
l-0.556,-0.729
l-0.593,-0.221
l-1.575,0.000
l-0.296,0.096
l-1.633,1.27
l-0.011,0.071
l0.021,1.376
l-4.356,1.574
l-1.325,-0.147
l-0.572,-0.739
l-0.471,0.963
l-0.755,5.443
l-0.085,1.048
l0.031,0.506
l0.021,0.286
l2.49,4.429
l0.793,0.784
l2.955,0.793
l-0.223,1.292
l-1.085,1.438
l-0.094,0.104
l-2.041,2.136
l-1.935,0.443
l-0.148,-0.021
l-3.643,1.565
l-3.231,1.417
l-0.518,0.221
l-0.211,0.149
l-0.291,0.844
l1.967,0.581
l0.35,-0.316
l0.683,0.021
l0.095,0.041
l0.232,0.403
l-0.147,0.54
l-0.105,0.084
l-0.211,0.104
l-0.842,0.094
l-0.351,-0.137
l-1.156,0.762
l-2.474,-0.305
l-3.966,0.199
l0.459,-2.813
l-0.438,-3.074
l-0.751,-0.792
l-0.376,0.103
l-0.137,0.087
l-1.348,1.235
l-0.055,0.813
l-2.241,2.317
l-0.212,0.083
l-0.725,0.338
l-0.38,0.225
l-3.131,4.396
l-0.122,0.34
l-0.01,0.095
l0.745,1.796
l0.307,0.508
l0.914,0.021
l1.126,-0.138
l0.83,0.763
l1.984,1.859
l0.237,0.495
l0.042,0.268
l-0.333,0.527
l-1.847,1.732
l-1.629,0.867
l-0.611,0.497
l-0.444,0.698
l0.138,0.199
l0.486,0.486
l1.57,1.101
l-2.665,1.194
l-4.106,1.458
l-12.482,1.715
l-0.213,0.000
l-0.295,-0.169
l-0.564,-0.529
l-0.423,-0.486
l-0.285,-0.211
l-0.389,-0.188
l-1.316,0.283
l-0.158,0.095
l-0.157,0.255
l-0.16,0.771
l-0.02,0.212
l-0.439,0.413
l-1.887,0.592
l-0.588,-0.295
l-1.675,-1.873
l-0.661,-1.185
l-0.549,-2.188
l-1.756,0.213
l-1.982,-1.175
l-0.105,-0.179
l-0.086,-0.56
l-0.034,-2.106
l0.142,-1.575
l0.444,-0.654
l0.443,0.011
l0.074,-0.105
l0.27,-0.676
l0.000,-0.147
l-0.565,-0.825
l-0.327,-0.477
l-0.265,-0.221
l-3.476,-0.668
l-1.574,0.21
l-0.17,0.064
l-1.084,1.152
l-0.222,0.751
l-2.199,1.776
l-1.517,0.698
l-0.096,-0.158
l-0.455,-0.138
l-0.429,0.138
l-0.222,0.252
l-0.146,0.624
l0.000,0.201
l0.114,2.135
l0.692,0.477
l0.444,0.159
l0.297,0.835
l1.199,7.561
l0.000,0.063
l-2.006,6.873
l-3.111,0.516
l-0.938,1.884
l-0.096,0.138
l-0.819,0.029
l-2.21,-2.136
l-0.696,-1.015
l-0.031,-0.105
l-0.098,-0.485
l0.107,-0.581
l0.422,-0.477
l0.328,-0.285
l0.555,-0.412
l0.423,-0.139
l0.043,-0.612
l-1.357,-2.368
l-1.623,-1.364
l-0.895,-0.01
l-0.744,0.167
l-0.127,0.107
l-0.383,1.152
l-1.167,0.496
l-1.359,0.465
l-0.401,-0.053
l-3.585,-0.635
l-1.348,-1.47
l-1.137,-2.029
l-0.549,-0.562
l-0.189,-0.042
l-0.16,0.000
l-6.64,0.042
l-7.508,3.066
l-0.212,0.939
l0.181,3.057
l0.086,0.371
l0.367,0.308
l5.504,3.888
l0.171,0.056
l0.623,0.147
l1.282,0.421
l0.588,0.31
l0.413,0.526
l0.054,1.375
l-0.224,0.615
l-0.137,0.167
l-0.684,0.465
l-0.696,0.182
l-0.285,-0.042
l-2.828,-0.647
l-2.423,-0.559
l-0.581,-0.116
l-0.291,0.224
l-0.073,0.211
l0.042,1.7
l0.144,0.065
l0.138,1.755
l-0.449,0.76
l-0.188,0.086
l-0.276,0.044
l-5.228,-1.917
l-1.835,-0.452
l-0.191,-0.444
l-0.417,-1.163
l-0.667,-2.877
l0.34,-3.571
l0.264,-2.813
l-3.044,-0.697
l-3.997,-1.5
l-2.284,-2.496
l-0.308,-1.185
l-0.254,-1.015
l-0.883,0.443
l-0.925,0.423
l-1.856,-0.2
l-0.169,-0.021
l-0.533,-0.752
l-0.021,-0.582
l-0.391,-2.409
l-2.432,-5.159
l-0.504,-0.529
l-0.548,-0.444
l-4.675,-1.953
l-1.455,-1.969
l-1.84,-2.408
l-0.539,-0.056
l-6.64,0.709
l-1.813,2.009
l-0.988,0.983
l-0.37,0.179
l-0.279,0.087
l-0.202,-9.706
l0.17,-0.369
l0.396,-0.637
l0.213,-0.231
l1.803,-1.511
l-0.74,-2.062
l-0.777,-1.354
l-0.296,-0.242
l-1.272,-0.127
l-2.158,-0.127
l-0.481,0.127
l-2.431,0.95
l-0.243,0.316
l0.042,0.614
l1.232,1.532
l-0.54,1.237
l-0.925,0.189
l-1.085,-0.182
l-3.272,-0.58
l-0.063,-0.932
l0.072,-2.651
l0.303,-0.443
l0.678,-0.973
l1.389,-1.716
l1.254,-2.674
l0.472,-1.237
l0.000,-0.327
l-0.169,-1.472
l-0.927,-1.129
l1.35,-0.425
l0.264,-0.095
l0.127,-0.146
l-0.011,-0.465
l-0.094,-0.974
l-0.383,-0.711
l-0.01,-0.56
l0.358,-1.797
l0.138,-0.349
l1.096,-0.89
l0.459,-0.326
l1.622,0.211
l1.381,-0.041
l0.715,-1.154
l1.623,-4.102
l-0.021,-0.794
l-0.968,-5.908
l-1.465,-4.813
l0.608,-1.268
l0.147,-0.297
l0.147,-0.096
l0.265,-0.138
l0.862,-0.105
l1.433,0.147
l2.295,0.317
l1.284,0.699
l0.296,0.357
l0.29,0.223
l0.465,0.137
l0.413,-0.054
l1.714,-0.232
l0.241,-0.179
l0.181,0.043
l0.515,-0.2
l0.273,-0.159
l0.55,-0.654
l-0.147,-0.181
l0.588,-1.163
l0.17,-0.497
l-0.525,-0.941
l-0.507,-0.527
l-0.201,-0.212
l-0.895,-0.604
l-1.796,-0.653
l-0.212,-4.313
l-0.612,-1.228
l-1.349,-2.863
l-0.106,-0.267
l0.456,-0.569
l2.61,-0.636
l1.053,1.078
l0.359,1.322
l0.279,0.443
l-0.011,0.044
l0.371,0.695
l0.569,0.000
l0.186,-0.221
l0.042,-0.784
l-0.042,-1.786
l-0.206,0.031
l-0.358,-0.527
l-0.032,-0.265
l0.423,-1.333
l0.334,-0.306
l0.369,-0.181
l0.614,-0.443
l0.321,-0.794
l-0.279,-0.612
l-1.243,-0.296
l-1.316,-1.29
l-0.582,-0.476
l-0.817,-0.497
l-1.654,-0.563
l-4.559,-2.313
l-0.915,-2.897
l-1.888,-0.804
L265.601,388
l-1.212,-1.533
l-1.438,-3.447
l-0.581,-2.166
l-0.147,-1.005
l0.199,-0.909
l0.201,0.138
l0.212,-0.063
l0.492,-0.191
l3.075,-2.071
l6.662,-3.869
l5.318,-1.078
l8.02,-5.437
l2.593,-2.07
l0.143,-0.117
l1.507,-2.251
l0.147,-0.328
l0.232,-0.814
l-0.043,-0.096
l-0.434,-0.2
l0.909,-1.936
l0.691,-1.162
l2.369,-0.623
l0.191,-0.021
l0.84,0.273
l1.539,0.655
l0.417,0.189
l0.739,0.466
l0.387,0.255
l1.21,1.797
l0.582,0.306
l2.433,-0.306
l4.567,-1.163
l0.926,-1.766
l2.082,-5.53
l0.275,0.043
l1.155,-0.159
L312.004,351.725
z
"/>
<path id="Sachsen-Anhalt" fill="#B1D1A3" stroke="#284566" stroke-width="0.5" d="
M365.987,207.776
l1.396,-0.57
l0.255,-0.042
l0.487,0.042
l0.21,0.053
l0.228,0.127
l0.212,0.18
l0.073,0.243
l-0.021,0.201
l-0.106,0.17
l-0.861,1.151
l-0.054,0.307
l0.054,0.381
l0.138,0.285
l0.243,0.255
l3.57,2.844
l0.216,0.138
l0.528,0.096
l0.308,-0.085
l0.743,-0.519
l0.99,-0.582
l0.169,-0.031
l0.539,0.085
l0.396,0.139
l0.381,0.178
l0.223,0.117
l5.174,3.003
l0.244,0.307
l0.095,0.265
l0.031,0.275
l-0.021,0.242
l-0.095,0.275
l-0.139,0.19
l-0.534,0.453
l-0.518,0.551
l-0.19,0.401
l-0.053,0.2
l0.063,0.486
l0.254,0.497
l0.224,0.222
l0.349,0.18
l3.592,1.459
l5.216,1.683
l0.285,0.053
l8.223,-0.973
l0.746,-0.688
l-0.134,0.169
l-0.253,0.646
l-0.032,0.678
l0.842,1.987
l1.644,-0.55
l0.915,-0.477
l1.549,-0.698
l1.48,0.666
l0.624,0.413
l0.095,0.273
l1.233,4.896
l-0.202,1.809
l-1.465,0.729
l-0.673,1.29
l-0.349,1.142
l-0.424,4.441
l0.032,0.104
l1.243,2.029
l1.188,1.788
l0.275,0.888
l0.021,0.581
l-0.411,3.681
l-1.63,1.193
l-0.423,-0.021
l-0.413,-0.116
l-0.903,1.627
l-1.775,7.116
l-0.043,0.75
l0.043,0.043
l1.829,2.167
l0.861,1.026
l1.178,-0.19
l1.116,-0.327
l0.317,-0.467
l0.041,-0.147
l0.181,-0.939
l5.547,1.924
l0.369,3.267
l-0.308,0.932
l-0.576,1.024
l-0.865,2.156
l0.188,1.65
l0.402,2.854
l0.65,3.427
l-1.189,2.399
l-0.248,0.116
l-0.106,0.169
l-1.168,2.57
l-0.569,1.786
l-0.128,0.477
l-0.271,2.474
l0.229,4.028
l-1.83,4.145
l2.926,3.753
l2.087,3.215
l2.649,3.446
l1.664,1.882
l4.59,2.855
l7.21,2.801
l3.961,0.603
l0.767,-0.127
l1.822,-1.29
l0.153,-1.354
l0.444,-0.592
l0.926,-0.012
l1.992,0.922
l0.692,0.442
l1.602,0.899
l1.812,0.939
l0.349,0.021
l0.48,1.437
l4.927,2.835
l2.422,0.612
l0.518,0.021
l1.063,-0.382
l4.874,2.591
l3.028,3.131
l0.297,0.188
l0.159,0.021
l2.357,0.211
l2.051,-0.834
l0.338,-0.213
l-0.063,-0.665
l0.903,0.042
l0.412,0.265
l0.726,0.719
l0.138,0.613
l0.021,0.623
l-1.738,0.276
l0.011,0.222
l0.009,0.253
l3.321,11.704
l0.48,0.435
l0.274,0.252
l0.465,0.941
l0.042,0.477
l0.000,0.139
l-1.399,2.516
l-0.52,0.562
l-6.449,4.281
l-2.151,0.296
l-6.558,0.317
l-0.053,0.000
l-9.524,0.189
l-0.927,-0.349
l-0.104,-0.063
l-0.704,-0.519
l-1.006,-0.358
l-0.343,-0.105
l-0.529,-0.096
l-1.01,0.000
l-0.359,0.222
l-0.269,0.317
l-0.128,0.231
l-0.105,0.592
l-0.688,1.852
l-0.223,0.18
l-0.81,0.635
l-0.829,0.613
l-1.571,0.761
l-2.028,-1.385
l-0.328,1.121
l-1.987,0.983
l-7.528,2.155
l-2.294,0.224
l-2.538,0.053
l-0.661,0.084
l-5.265,2.771
l-3.464,3.087
l-0.2,2.39
l-2.441,5.307
l0.39,1.438
l1.01,3.384
l0.14,0.063
l0.041,0.084
l0.223,0.688
l0.968,5.467
l0.181,1.586
l-1.327,0.508
l-1.603,0.866
l1.676,4.493
l1.266,1.829
l0.399,1.902
l0.042,0.266
l0.376,2.42
l-0.021,7.232
l2.035,0.434
l0.313,0.159
l0.539,0.581
l-0.054,0.391
l-0.666,0.563
l2.3,2.019
l1.385,0.974
l-1.606,2.506
l0.254,1.681
l1.3,0.963
l0.382,0.232
l0.477,0.624
l-0.042,1.024
l-0.063,0.307
l-3.183,6.872
l-0.714,0.92
l-0.244,0.139
l-0.577,0.401
l-0.042,-0.032
l-0.264,-1.078
l-0.444,-0.834
l-1.406,-1.8
l-0.104,-0.104
l-0.679,0.551
l-0.272,0.306
l-0.249,0.275
l0.073,0.72
l-1.085,-0.498
l-3.62,-1.195
l-0.244,0.021
l-3.219,0.52
l-0.35,0.084
l-0.957,0.422
l-0.043,-0.888
l-0.021,-0.242
l-0.181,-0.53
l-2.347,-3.013
l-0.254,-0.231
l-2.169,-1.555
l-3.451,-2.198
l-0.835,-0.275
l-2.03,0.538
l-2.807,0.582
l-1.804,-0.485
l-4.779,-1.521
l-0.137,-0.562
l-0.191,-1.333
l-0.312,-1.215
l-1.561,-0.963
l-6.297,-0.994
l-0.2,0.181
l-0.345,0.751
l-0.254,0.231
l-0.84,0.709
l-3.875,0.085
l-0.055,-0.265
l-0.901,-0.425
l-0.486,-0.368
l-0.831,-3.427
l1.317,-0.242
l0.273,-0.509
l0.534,-1.248
l0.000,-0.272
l-1.085,-2.454
l-1.569,-1.606
l-0.861,-0.357
l-0.244,-0.022
l-0.938,0.443
l-1.59,-0.041
l-1.555,-1.237
l0.106,-0.804
l0.575,-1.004
l0.338,-0.528
l0.223,-0.159
l0.186,-0.011
l0.751,0.856
l0.055,0.011
l0.47,-0.18
l0.273,-0.201
l0.519,-0.593
l0.82,-1.162
l1.465,-2.137
l0.703,-1.108
l0.4,-0.688
l0.064,-0.146
l-0.043,-0.274
l-0.465,-0.508
l-1.307,-1.174
l-0.396,-0.211
l-0.309,-0.106
l-0.671,-0.645
l-0.496,-0.635
l0.021,-0.148
l0.063,-0.147
l0.522,-0.508
l-1.797,-0.602
l-0.021,-0.402
l-0.551,-1.016
l0.276,-1.871
l-0.043,-0.338
l-0.233,-0.296
l-4.187,-1.607
l-2.771,-0.116
l-0.704,0.148
l-1.401,0.031
l-6.438,-0.139
l-0.465,-0.053
l-6.445,-2.04
l-0.63,0.316
l-1.157,0.412
l-0.751,0.073
l-0.839,-0.104
l-0.863,-0.962
l-0.775,-0.465
l0.132,-2.707
l0.147,-2.391
l-0.958,-1.226
l-1.68,-2.591
l-2.089,-3.258
l-1.211,-2.887
l0.476,-1.605
l1.666,-2.242
l-1.265,0.539
l-1.962,-1.817
l-0.428,-0.307
l-2.917,-0.688
l-1.914,-0.169
l-3.39,-0.274
l-1.846,0.401
l-0.37,-0.117
l-0.054,-0.053
l-0.301,-0.412
l-1.265,-2.028
l-0.138,-0.393
l-0.222,-1.278
l-0.084,-0.856
l0.211,-0.528
l-0.937,-2.229
l-3.013,-4.452
l-1.032,-0.57
l-0.702,-1.471
l-0.265,-2.822
l-0.01,-3.457
l0.146,-0.508
l0.358,-0.465
l2.146,-1.776
l0.387,-0.157
l0.381,-0.021
l0.179,-0.127
l1.021,-1.597
l0.105,-0.35
l0.000,-0.739
l-0.075,-0.655
l-0.104,-0.285
l-0.523,-0.646
l-0.804,-0.327
l-0.895,-0.327
l-0.021,-1.628
l0.021,-0.182
l0.758,-1.099
l1.272,-0.423
l-3.731,-2.803
l-1.687,-2.38
l4.207,-0.442
l1.771,-1.745
l0.053,-0.137
l0.042,-0.286
l-0.158,-0.443
l0.105,-0.952
l1.924,-0.581
l1.02,-0.2
l5.035,-0.063
l0.254,0.000
l0.946,0.223
l1.823,-0.054
l1.386,-0.296
l0.358,-0.147
l0.937,-0.667
l0.518,-0.094
l3.433,-0.106
l1.708,0.17
l0.109,0.096
l0.307,-3.088
l0.382,-1.924
l2.029,-1.449
l1.877,-1.533
l1.189,-1.774
l0.164,-0.275
l0.052,-1.459
l-0.104,-0.358
l-0.06,-0.073
l-0.169,-0.022
l-0.879,0.117
L332.51,297
l-0.665,-0.402
l-0.376,-0.296
l-0.18,-0.19
l-0.138,-0.307
l-0.063,-0.422
l0.117,-0.751
l0.412,-1.047
l0.291,-0.539
l0.326,-0.212
l0.998,-0.466
l0.698,-0.179
l1.084,-0.224
l0.586,-0.782
l0.033,-0.063
l-0.021,-0.085
l-0.438,-0.964
l-1.433,-1.998
l-1.358,-1.363
l-1.434,-1.574
l-0.054,-0.096
l-0.417,-4.103
l1.228,-1.714
l0.56,0.138
l0.18,-0.053
l1.127,-0.518
l0.809,-0.646
l0.054,-0.179
l0.041,-1.406
l-0.052,-0.393
l-0.618,-0.604
l-0.771,-0.665
l-0.229,-0.105
l-0.317,-0.054
l-1.295,-0.804
l-4.525,-5.771
l-0.856,-1.841
l0.625,-1.554
l2.239,-1.206
l1.74,0.074
l-1.823,-2.113
l-1.316,-1.682
l-0.756,-1.29
l-0.339,-0.751
l-0.338,-1.354
l0.18,-2.188
l0.012,-0.042
l-2.799,-5.424
l-3.727,-5.319
l-2.611,-1.924
l-2.633,-7.189
l0.085,-0.569
l0.147,-0.604
l-0.223,-2.272
l0.021,-0.201
l0.509,-2.188
l2.062,-0.581
l2.676,-0.55
l6.063,-0.158
l2.851,-3.099
l0.202,-0.423
l0.019,-0.158
l-0.094,-0.454
l0.043,-0.752
l0.169,-0.655
l0.327,-0.38
l0.258,-0.104
l0.34,-0.032
l9.263,0.401
l3.896,0.762
l0.746,0.771
l0.315,0.328
l0.127,0.317
l0.000,0.273
l0.043,0.128
l0.105,0.073
l0.317,0.063
l3.154,0.329
l1.127,-0.318
l5.694,-2.78
l0.147,-0.157
l0.894,-1.163
l1.761,-1.702
l1.116,-0.635
l1.23,-0.285
l0.861,0.011
l-0.798,-1.872
l0.576,-3.204
l0.222,-1.014
l0.339,-0.709
l0.831,-0.158
l0.083,0.042
l0.382,0.529
l0.649,0.358
l0.74,0.073
l0.032,-0.053
l2.479,-3.637
l0.011,-0.085
L365.987,207.776
z
"/>
</g>
</svg>
